<svg width="19" height="18" viewBox="0 0 19 18" fill="none" xmlns="http://www.w3.org/2000/svg">
<path d="M8.26201 4.34933H3.47252C3.09549 4.34933 2.79004 4.04389 2.79004 3.66685C2.79004 3.28982 3.09549 2.98438 3.47252 2.98438H8.26201C8.63904 2.98438 8.94449 3.28982 8.94449 3.66685C8.94449 4.04389 8.63874 4.34933 8.26201 4.34933Z" fill="black"/>
<path d="M11.2802 2.94531C10.8816 2.94531 10.5586 3.26835 10.5586 3.66692C10.5586 4.06549 10.8816 4.38853 11.2802 4.38853C11.6788 4.38853 12.0018 4.06549 12.0018 3.66692C12.0021 3.26866 11.6788 2.94531 11.2802 2.94531Z" fill="black"/>
<path d="M13.3754 2.94531C12.9768 2.94531 12.6538 3.26835 12.6538 3.66692C12.6538 4.06549 12.9768 4.38853 13.3754 4.38853C13.774 4.38853 14.097 4.06549 14.097 3.66692C14.097 3.26866 13.774 2.94531 13.3754 2.94531Z" fill="black"/>
<path d="M15.4701 2.94531C15.0716 2.94531 14.7485 3.26835 14.7485 3.66692C14.7485 4.06549 15.0716 4.38853 15.4701 4.38853C15.8687 4.38853 16.1918 4.06549 16.1918 3.66692C16.1918 3.26866 15.8687 2.94531 15.4701 2.94531Z" fill="black"/>
<path d="M17.0772 0.5H1.90488C0.855374 0.5 0 1.35234 0 2.40488V16.0241C0 17.0767 0.855374 17.929 1.90488 17.929H16.4584C16.8773 17.929 16.4584 17.506 16.4584 17.0871C16.4584 16.6682 16.8773 16.4124 16.4584 16.4124H1.90488C1.69134 16.4124 1.51662 16.2377 1.51662 16.0241V6.83038H17.4654V16.0241C17.4654 16.2377 17.2907 16.4124 17.0772 16.4124H16.4584C16.0395 16.4124 16.4584 16.6682 16.4584 17.0871C16.4584 17.506 16.0395 17.929 16.4584 17.929H17.0772C18.1267 17.929 18.982 17.0767 18.982 16.0241V2.40488C18.982 1.35234 18.1267 0.5 17.0772 0.5ZM17.4654 5.31376H1.51662V2.40488C1.51662 2.18952 1.69255 2.01662 1.90488 2.01662H17.0772C17.2895 2.01662 17.4654 2.18952 17.4654 2.40488V5.31376Z" fill="black"/>
</svg>
